<?xml version="1.0" encoding="UTF-8"?>
<!DOCTYPE svg PUBLIC "-//W3C//DTD SVG 1.1//EN" "http://www.w3.org/Graphics/SVG/1.1/DTD/svg11.dtd">
<!-- Creator: CorelDRAW X7 -->
<svg xmlns="http://www.w3.org/2000/svg" xml:space="preserve" width="179.211mm" height="179.352mm" version="1.1" style="shape-rendering:geometricPrecision; text-rendering:geometricPrecision; image-rendering:optimizeQuality; fill-rule:evenodd; clip-rule:evenodd"
viewBox="0 0 15297 15309"
 xmlns:xlink="http://www.w3.org/1999/xlink">
 <defs>
  <style type="text/css">
   <![CDATA[
    .fil2 {fill:#FEFEFE}
    .fil4 {fill:#FED257}
    .fil3 {fill:#EDEFF3}
    .fil0 {fill:#3E4E62}
    .fil1 {fill:#4684C5}
   ]]>
  </style>
 </defs>
 <g id="Слой_x0020_1">
  <metadata id="CorelCorpID_0Corel-Layer"/>
  <path class="fil0" d="M7648 0c4225,0 7649,3424 7649,7648 0,4225 -3425,7649 -7649,7649 -4224,0 -7648,-3424 -7648,-7649 0,-4224 3424,-7648 7648,-7648z"/>
  <path class="fil1" d="M15297 7648c0,3686 -2602,6758 -6071,7480 -506,109 -1036,169 -1578,169 -542,0 -1072,-60 -1577,-169 -3469,-722 -6071,-3794 -6071,-7480 0,-4227 3421,-7648 7648,-7648 4228,0 7649,3421 7649,7648z"/>
  <path class="fil2" d="M9395 7817l-3493 0c-157,0 -277,-132 -277,-277l0 0c0,-157 132,-277 277,-277l3493 0c156,0 277,132 277,277l0 0c0,145 -121,277 -277,277z"/>
  <path class="fil3" d="M9226 7817l0 7323c-506,109 -1036,169 -1578,169 -542,0 -1072,-60 -1577,-169l0 -7323 3155 0z"/>
  <path class="fil4" d="M8829 3216c12,217 -97,434 -241,650 120,-734 -121,-1553 -1096,-1927 84,313 -121,687 -301,1096 -109,-132 -253,-265 -410,-373 72,1024 -2168,2047 -349,3794 0,0 120,84 337,157l-12 -12c-385,-422 -602,-1301 133,-1879 -12,144 60,277 156,421 -72,-470 84,-1012 711,-1253 -60,205 72,446 205,711 72,-84 156,-169 265,-241 -37,554 975,1108 614,1951 72,-48 144,-120 205,-192l0 0c590,-675 915,-2012 -217,-2903z"/>
  <path class="fil2" d="M9395 12840l-3493 0c-157,0 -277,-133 -277,-277l0 0c0,-157 132,-277 277,-277l3493 0c156,0 277,132 277,277l0 0c0,156 -121,277 -277,277z"/>
  <path class="fil2" d="M9395 10334l-3493 0c-157,0 -277,-132 -277,-277l0 0c0,-156 132,-277 277,-277l3493 0c156,0 277,133 277,277l0 0c0,145 -121,277 -277,277z"/>
 </g>
</svg>
