<?xml version="1.0" encoding="UTF-8"?>
<!DOCTYPE svg PUBLIC "-//W3C//DTD SVG 1.1//EN" "http://www.w3.org/Graphics/SVG/1.1/DTD/svg11.dtd">
<!-- Creator: CorelDRAW X7 -->
<svg xmlns="http://www.w3.org/2000/svg" xml:space="preserve" width="179.211mm" height="179.211mm" version="1.1" style="shape-rendering:geometricPrecision; text-rendering:geometricPrecision; image-rendering:optimizeQuality; fill-rule:evenodd; clip-rule:evenodd"
viewBox="0 0 13848 13848"
 xmlns:xlink="http://www.w3.org/1999/xlink">
 <defs>
  <style type="text/css">
   <![CDATA[
    .fil1 {fill:#FEFEFE}
    .fil0 {fill:#4684C5}
   ]]>
  </style>
 </defs>
 <g id="Слой_x0020_1">
  <metadata id="CorelCorpID_0Corel-Layer"/>
  <path class="fil0" d="M13848 6924c0,3336 -2355,6117 -5496,6771 -458,98 -937,153 -1428,153 -491,0 -971,-55 -1428,-153 -3141,-654 -5496,-3435 -5496,-6771 0,-3827 3097,-6924 6924,-6924 3827,0 6924,3097 6924,6924z"/>
  <path class="fil1" d="M7521 7077c0,330 -267,598 -597,598 -330,0 -598,-268 -598,-598 0,-330 268,-598 598,-598 330,0 597,268 597,598z"/>
  <path class="fil1" d="M10251 6484l-836 -156c-51,-169 -118,-331 -200,-484l484 -707c44,-65 35,-163 -21,-219l-596 -597c-57,-55 -154,-65 -220,-20l-707 484c-157,-85 -324,-153 -498,-204l-155 -831c-15,-78 -91,-141 -171,-141l-843 0c-79,0 -155,63 -169,141l-158 840c-167,51 -327,117 -478,199l-698 -477c-66,-45 -164,-36 -220,20l-595 596c-57,56 -66,155 -21,220l481 702c-82,151 -147,311 -197,478l-836 156c-77,15 -140,91 -140,170l0 844c0,79 63,154 140,169l835 157c51,170 118,334 201,487l-475 695c-45,65 -35,163 20,219l597 597c56,56 154,64 219,20l694 -475c150,81 308,146 474,197l157 839c14,78 91,141 170,141l842 0c80,0 156,-63 171,-141l156 -831c172,-51 337,-118 493,-201l703 481c65,45 164,36 219,-20l596 -596c56,-56 65,-154 21,-219l-478 -700c84,-156 152,-321 204,-493l835 -157c77,-15 140,-90 140,-169l0 -844c0,-79 -63,-155 -140,-170zm-3327 2040c-798,0 -1446,-648 -1446,-1447 0,-799 648,-1447 1446,-1447 799,0 1446,648 1446,1447 0,799 -648,1447 -1446,1447z"/>
 </g>
</svg>
